<svg xmlns="http://www.w3.org/2000/svg" xmlns:xlink="http://www.w3.org/1999/xlink" fill="none" version="1.1" width="406" height="352.7762756347656" viewBox="0 0 406 352.7762756347656"><defs><filter id="master_svg_0" filterUnits="userSpaceOnUse" color-interpolation-filters="sRGB" x="-10" y="-6" width="426" height="372.7762756347656"><feFlood flood-opacity="0" result="BackgroundImageFix"/><feColorMatrix in="SourceAlpha" type="matrix" values="0 0 0 0 0 0 0 0 0 0 0 0 0 0 0 0 0 0 127 0"/><feOffset dy="4" dx="0"/><feGaussianBlur stdDeviation="5"/><feColorMatrix type="matrix" values="0 0 0 0 0 0 0 0 0 0 0 0 0 0 0 0 0 0 0.3019607961177826 0"/><feBlend mode="normal" in2="BackgroundImageFix" result="effect1_dropShadow"/><feBlend mode="normal" in="SourceGraphic" in2="effect1_dropShadow" result="shape"/></filter><filter id="master_svg_1" filterUnits="userSpaceOnUse" color-interpolation-filters="sRGB" x="86" y="0" width="330" height="334"><feFlood flood-opacity="0" result="BackgroundImageFix"/><feBlend mode="normal" in="SourceGraphic" in2="BackgroundImageFix" result="shape"/><feColorMatrix in="SourceAlpha" type="matrix" result="hardAlpha" values="0 0 0 0 0 0 0 0 0 0 0 0 0 0 0 0 0 0 127 0"/><feOffset dy="4" dx="0"/><feGaussianBlur stdDeviation="5"/><feComposite in2="hardAlpha" operator="arithmetic" k2="-1" k3="1"/><feColorMatrix type="matrix" values="0 0 0 0 0 0 0 0 0 0 0 0 0 0 0 0 0 0 0.3019607961177826 0"/><feBlend mode="normal" in2="shape" result="effect1_innerShadow"/></filter></defs><g><g filter="url(#master_svg_0)" style="mix-blend-mode:passthrough"><g><g style="mix-blend-mode:passthrough"><ellipse cx="160" cy="192.7762794494629" rx="160" ry="160" fill="#1E90FF" fill-opacity="1"/></g><g filter="url(#master_svg_1)" style="mix-blend-mode:passthrough"><path d="M165.0312,296.8C204.812,296.8,229.766,272.894,229.766,242.862C229.766,214.628,212.60899999999998,201.675,190.51600000000002,192.097L163.2031,180.441C148.3906,174.222,131.75,167.222,131.75,148.831C131.75,131.737,145.7969,120.862,167.375,120.862C185.0469,120.862,199.094,127.862,210.797,138.737L223.531,123.456C210.01600000000002,109.425,189.98399999999998,99.8,167.375,99.8C132.7969,99.8,107.3125,121.128,107.3125,150.394C107.3125,178.097,128.375,191.566,146.0469,199.081L173.6094,211.003C191.547,219.034,205.328,225.237,205.328,244.675C205.328,263.316,190.25,275.753,165.2969,275.753C145.5312,275.753,126.2969,266.425,112.5156,252.175L98.2188,268.503C114.8594,285.894,137.9844,296.8,165.0312,296.8Z" fill="#FFFFFF" fill-opacity="1"/></g></g></g></g></svg>